<svg width="42" height="42" viewBox="0 0 42 42" fill="none" xmlns="http://www.w3.org/2000/svg">
<path d="M42 9.555C41.975 8.64907 41.9049 7.74495 41.79 6.846C41.633 6.05883 41.3717 5.29611 41.013 4.578C40.6363 3.79993 40.1324 3.09018 39.522 2.478C38.905 1.87336 38.1963 1.37014 37.422 0.987C36.7028 0.635596 35.9402 0.381369 35.154 0.231C34.2639 0.0964645 33.366 0.0193055 32.466 0H9.555C8.64907 0.0249916 7.74495 0.0950782 6.846 0.21C6.05883 0.367046 5.29611 0.628349 4.578 0.987C3.79993 1.36372 3.09018 1.86764 2.478 2.478C1.87336 3.09499 1.37014 3.80375 0.987 4.578C0.635596 5.29715 0.381369 6.05984 0.231 6.846C0.0964645 7.73612 0.0193055 8.63397 0 9.534V32.445C0.0249916 33.3509 0.0950782 34.255 0.21 35.154C0.367046 35.9412 0.628349 36.7039 0.987 37.422C1.36372 38.2001 1.86764 38.9098 2.478 39.522C3.09499 40.1266 3.80375 40.6299 4.578 41.013C5.29715 41.3644 6.05984 41.6186 6.846 41.769C7.73612 41.9035 8.63397 41.9807 9.534 42H32.445C33.3509 41.975 34.255 41.9049 35.154 41.79C35.9412 41.633 36.7039 41.3717 37.422 41.013C38.2001 40.6363 38.9098 40.1324 39.522 39.522C40.1266 38.905 40.6299 38.1963 41.013 37.422C41.3644 36.7028 41.6186 35.9402 41.769 35.154C41.9035 34.2639 41.9807 33.366 42 32.466V9.555ZM21.483 35.7C18.9608 35.6894 16.4825 35.0391 14.28 33.81L6.3 35.91L8.4 28.098C7.0448 25.823 6.31996 23.228 6.3 20.58C6.30836 17.6041 7.19713 14.6973 8.85436 12.2256C10.5116 9.75387 12.8632 7.82781 15.6129 6.69C18.3627 5.55219 21.3877 5.25351 24.3068 5.83157C27.226 6.40963 29.9089 7.83859 32.0175 9.93847C34.1261 12.0383 35.5662 14.7152 36.1564 17.632C36.7466 20.5487 36.4605 23.5749 35.3342 26.3294C34.2078 29.0839 32.2915 31.4434 29.8267 33.1109C27.3619 34.7784 24.4588 35.6793 21.483 35.7ZM21.483 8.127C19.2566 8.15248 17.0767 8.76746 15.1653 9.90935C13.2538 11.0512 11.6791 12.6792 10.6014 14.6276C9.52374 16.576 8.98159 18.7751 9.03018 21.0011C9.07876 23.2271 9.71634 25.4005 10.878 27.3L11.172 27.783L9.912 32.382L14.7 31.08L15.162 31.353C17.0721 32.4781 19.2452 33.0793 21.462 33.096C24.8037 33.096 28.0086 31.7685 30.3715 29.4055C32.7345 27.0426 34.062 23.8377 34.062 20.496C34.062 17.1543 32.7345 13.9494 30.3715 11.5865C28.0086 9.2235 24.8037 7.896 21.462 7.896L21.483 8.127ZM28.833 26.019C28.5579 26.4778 28.1897 26.8737 27.752 27.1812C27.3142 27.4887 26.8169 27.7008 26.292 27.804C25.5079 27.9499 24.6998 27.8994 23.94 27.657C23.2248 27.4329 22.5236 27.1664 21.84 26.859C19.2439 25.5563 17.0298 23.6027 15.414 21.189C14.5381 20.0695 14.0056 18.72 13.881 17.304C13.8685 16.7156 13.9798 16.1311 14.2077 15.5884C14.4356 15.0457 14.7751 14.557 15.204 14.154C15.3303 14.0108 15.4853 13.8956 15.659 13.816C15.8326 13.7365 16.021 13.6942 16.212 13.692H16.8C17.031 13.692 17.346 13.692 17.64 14.343C17.934 14.994 18.711 16.947 18.816 17.136C18.8676 17.2367 18.8945 17.3483 18.8945 17.4615C18.8945 17.5747 18.8676 17.6863 18.816 17.787C18.7244 18.0158 18.5968 18.2285 18.438 18.417C18.249 18.648 18.039 18.921 17.871 19.089C17.703 19.257 17.493 19.467 17.703 19.845C18.2753 20.8086 18.9825 21.6855 19.803 22.449C20.6974 23.2393 21.7201 23.8714 22.827 24.318C23.205 24.507 23.436 24.486 23.646 24.318C23.856 24.15 24.591 23.226 24.843 22.848C25.095 22.47 25.347 22.533 25.683 22.659C26.019 22.785 27.888 23.688 28.266 23.877C28.644 24.066 28.875 24.15 28.98 24.318C29.0711 24.8676 29.0205 25.4314 28.833 25.956V26.019Z" fill="#000000"/>
</svg>
