<svg width="10" height="10" viewBox="0 0 10 10" fill="none" xmlns="http://www.w3.org/2000/svg">
<path d="M3 10C2.725 10 2.48958 9.90208 2.29375 9.70625C2.09792 9.51042 2 9.275 2 9C2 8.725 2.09792 8.48958 2.29375 8.29375C2.48958 8.09792 2.725 8 3 8C3.275 8 3.51042 8.09792 3.70625 8.29375C3.90208 8.48958 4 8.725 4 9C4 9.275 3.90208 9.51042 3.70625 9.70625C3.51042 9.90208 3.275 10 3 10ZM8 10C7.725 10 7.48958 9.90208 7.29375 9.70625C7.09792 9.51042 7 9.275 7 9C7 8.725 7.09792 8.48958 7.29375 8.29375C7.48958 8.09792 7.725 8 8 8C8.275 8 8.51042 8.09792 8.70625 8.29375C8.90208 8.48958 9 8.725 9 9C9 9.275 8.90208 9.51042 8.70625 9.70625C8.51042 9.90208 8.275 10 8 10ZM2.575 2L3.775 4.5H7.275L8.65 2H2.575ZM2.1 1H9.475C9.66667 1 9.8125 1.08542 9.9125 1.25625C10.0125 1.42708 10.0167 1.6 9.925 1.775L8.15 4.975C8.05833 5.14167 7.93542 5.27083 7.78125 5.3625C7.62708 5.45417 7.45833 5.5 7.275 5.5H3.55L3 6.5H9V7.5H3C2.625 7.5 2.34167 7.33542 2.15 7.00625C1.95833 6.67708 1.95 6.35 2.125 6.025L2.8 4.8L1 1H0V0H1.625L2.1 1ZM3.775 4.5H7.275H3.775Z" fill="white"/>
</svg>
