<svg width="30" height="29" viewBox="0 0 30 29" fill="none" xmlns="http://www.w3.org/2000/svg">
<path d="M3.75 13.5C2.7 13.5 1.8125 13.1375 1.0875 12.4125C0.3625 11.6875 0 10.8 0 9.75C0 8.7 0.3625 7.8125 1.0875 7.0875C1.8125 6.3625 2.7 6 3.75 6C4.8 6 5.6875 6.3625 6.4125 7.0875C7.1375 7.8125 7.5 8.7 7.5 9.75C7.5 10.8 7.1375 11.6875 6.4125 12.4125C5.6875 13.1375 4.8 13.5 3.75 13.5ZM10.5 7.5C9.45 7.5 8.5625 7.1375 7.8375 6.4125C7.1125 5.6875 6.75 4.8 6.75 3.75C6.75 2.7 7.1125 1.8125 7.8375 1.0875C8.5625 0.3625 9.45 0 10.5 0C11.55 0 12.4375 0.3625 13.1625 1.0875C13.8875 1.8125 14.25 2.7 14.25 3.75C14.25 4.8 13.8875 5.6875 13.1625 6.4125C12.4375 7.1375 11.55 7.5 10.5 7.5ZM19.5 7.5C18.45 7.5 17.5625 7.1375 16.8375 6.4125C16.1125 5.6875 15.75 4.8 15.75 3.75C15.75 2.7 16.1125 1.8125 16.8375 1.0875C17.5625 0.3625 18.45 0 19.5 0C20.55 0 21.4375 0.3625 22.1625 1.0875C22.8875 1.8125 23.25 2.7 23.25 3.75C23.25 4.8 22.8875 5.6875 22.1625 6.4125C21.4375 7.1375 20.55 7.5 19.5 7.5ZM26.25 13.5C25.2 13.5 24.3125 13.1375 23.5875 12.4125C22.8625 11.6875 22.5 10.8 22.5 9.75C22.5 8.7 22.8625 7.8125 23.5875 7.0875C24.3125 6.3625 25.2 6 26.25 6C27.3 6 28.1875 6.3625 28.9125 7.0875C29.6375 7.8125 30 8.7 30 9.75C30 10.8 29.6375 11.6875 28.9125 12.4125C28.1875 13.1375 27.3 13.5 26.25 13.5ZM6.975 28.5C5.85 28.5 4.90625 28.0687 4.14375 27.2062C3.38125 26.3438 3 25.325 3 24.15C3 22.85 3.44375 21.7125 4.33125 20.7375C5.21875 19.7625 6.1 18.8 6.975 17.85C7.7 17.075 8.325 16.2313 8.85 15.3188C9.375 14.4062 10 13.55 10.725 12.75C11.275 12.1 11.9125 11.5625 12.6375 11.1375C13.3625 10.7125 14.15 10.5 15 10.5C15.85 10.5 16.6375 10.7 17.3625 11.1C18.0875 11.5 18.725 12.025 19.275 12.675C19.975 13.475 20.5938 14.3375 21.1313 15.2625C21.6688 16.1875 22.3 17.05 23.025 17.85C23.9 18.8 24.7812 19.7625 25.6688 20.7375C26.5563 21.7125 27 22.85 27 24.15C27 25.325 26.6188 26.3438 25.8563 27.2062C25.0938 28.0687 24.15 28.5 23.025 28.5C21.675 28.5 20.3375 28.3875 19.0125 28.1625C17.6875 27.9375 16.35 27.825 15 27.825C13.65 27.825 12.3125 27.9375 10.9875 28.1625C9.6625 28.3875 8.325 28.5 6.975 28.5Z" fill="#914122"/>
</svg>
